Coordinates
version=1
nRows=18
nColumns=19
inDegrees=yes

Units are S.I. units (second, meters, Newtons, ...)
If the header above contains a line with 'inDegrees', this indicates whether rotational values are in degrees (yes) or radians (no).

endheader
time	pelvis_tilt	pelvis_list	pelvis_rotation	pelvis_tx	pelvis_ty	pelvis_tz	hip_flexion_r	hip_adduction_r	hip_rotation_r	knee_angle_r	knee_angle_r_beta	ankle_angle_r	hip_flexion_l	hip_adduction_l	hip_rotation_l	knee_angle_l	knee_angle_l_beta	ankle_angle_l
     11.52000000	     -1.96348503	     -4.89894464	     -4.67809601	      2.32397957	      1.07472841	      1.02854569	     12.97247759	      8.36482241	     -3.56855752	      8.49546675	      0.14827387	      7.03622115	    -12.49076799	     -7.55242587	     -7.15178073	     55.58254857	      0.97009848	    -19.48004317
     11.52666667	     -1.02903919	     -5.44343063	     -4.71411010	      2.32339228	      1.06985526	      1.02871306	     12.43317186	      8.84679760	     -3.69813656	     10.75716730	      0.18774799	      7.27872910	    -12.63859666	     -8.51420038	     -7.37782780	     58.52667299	      1.02148314	    -20.59519930
     11.53333333	     -0.87605548	     -5.74444483	     -4.81836121	      2.32237406	      1.06374260	      1.02899369	     13.09912946	      9.08369415	     -3.96905714	     13.79631669	      0.24079115	      7.77875443	    -11.74571764	     -9.26580901	     -7.38993562	     61.68918143	      1.07667933	    -21.44822546
     11.54000000	     -0.36818303	     -6.15278760	     -4.81391487	      2.32134063	      1.05772623	      1.02915452	     13.37365224	      9.36785981	     -4.33116731	     16.91491968	      0.29522104	      8.43333624	    -11.21347705	    -10.14013846	     -7.34499004	     64.75772547	      1.13023553	    -22.29426966
     11.54666667	      0.11253099	     -6.53454935	     -4.74407270	      2.32013554	      1.05146903	      1.02922265	     13.74204803	      9.58334822	     -4.75727941	     20.20556361	      0.35265361	      9.30737143	    -10.56017905	    -10.97447815	     -7.12598197	     67.80937806	      1.18349691	    -22.95572587
     11.55333333	      0.88659597	     -6.98002765	     -4.62380828	      2.31881231	      1.04543783	      1.02924221	     13.73681489	      9.83754784	     -5.13628594	     23.43420764	      0.40900408	     10.39746788	    -10.19641468	    -11.83181609	     -6.83456594	     70.74733755	      1.23477398	    -23.39458806
     11.56000000	      1.81663608	     -7.49054231	     -4.48402827	      2.31734428	      1.03955614	      1.02911775	     13.51540803	     10.14553018	     -5.44661715	     26.61441853	      0.46450923	     11.81497020	     -9.95632686	    -12.74824936	     -6.55350092	     73.59945724	      1.28455286	    -23.74976430
     11.56666667	      1.52115977	     -7.29453643	     -4.24446134	      2.31523669	      1.03256445	      1.02873306	     14.87306842	      9.69489048	     -5.91501992	     30.18514758	      0.52683021	     13.40260070	     -7.94687036	    -12.77146353	     -5.46015207	     76.67160986	      1.33817203	    -23.69449054
     11.57333333	      1.93573254	     -7.38868385	     -4.07336997	      2.31319269	      1.02660393	      1.02844270	     15.15215622	      9.59694506	     -6.06304583	     33.24278483	      0.58019605	     15.11938383	     -6.83939369	    -13.06284972	     -4.69580773	     79.44918165	      1.38664981	    -23.49532682
     11.58000000	      2.39751871	     -7.36206891	     -3.84669279	      2.31092841	      1.02108996	      1.02802289	     15.24341993	      9.38047756	     -6.14660618	     36.03166251	      0.62887115	     16.91195192	     -5.68290986	    -13.13566366	     -3.79793425	     82.08776291	      1.43270174	    -23.12091859
     11.58666667	      3.26700110	     -7.56165516	     -3.78407435	      2.30872458	      1.01644977	      1.02780740	     14.59876376	      9.49142438	     -5.93561405	     38.34366165	      0.66922314	     18.71656567	     -5.09444475	    -13.45019835	     -3.26031761	     84.46111418	      1.47412453	    -22.56285996
     11.59333333	      3.03853733	     -7.03798725	     -3.58330590	      2.30599781	      1.01131592	      1.02732792	     15.18991290	      8.82544411	     -5.86206307	     40.66174897	      0.70968140	     20.43968421	     -2.92332486	    -12.78832965	     -2.07879172	     86.90577659	      1.51679194	    -21.79618918
     11.60000000	      3.37654547	     -6.72035230	     -3.50067048	      2.30340535	      1.00737426	      1.02699811	     14.82789769	      8.42725867	     -5.59957418	     42.40964450	      0.74018793	     22.07856753	     -1.52376650	    -12.35928019	     -1.30716656	     88.99891036	      1.55332402	    -20.94252077
     11.60666667	      3.59425562	     -6.30952933	     -3.49018784	      2.30080939	      1.00398764	      1.02676587	     14.38643637	      7.96830745	     -5.24609456	     43.79039439	      0.76428656	     23.59014190	      0.01382813	    -11.79840184	     -0.64102592	     90.87984383	      1.58615250	    -19.98273852
     11.61333333	      3.79051060	     -5.84553498	     -3.55109153	      2.29831488	      1.00126250	      1.02658621	     13.74642490	      7.46128607	     -4.85412084	     44.78468701	      0.78164024	     24.91679998	      1.53855767	    -11.17175763	     -0.14797074	     92.50343760	      1.61448956	    -18.91118451
     11.62000000	      4.09813583	     -5.43778754	     -3.66652170	      2.29601102	      0.99936476	      1.02662511	     12.73839782	      7.04262492	     -4.40015272	     45.34085863	      0.79134727	     26.07098690	      2.86083900	    -10.68710649	      0.10380100	     93.83121046	      1.63766356	    -17.69791732
     11.62666667	      4.06501485	     -4.80670431	     -3.84633612	      2.29375999	      0.99782009	      1.02660044	     11.99362897	      6.36066063	     -3.98291607	     45.69421833	      0.79751456	     26.99944491	      4.58027618	     -9.88513277	      0.30651340	     94.93408852	      1.65691242	    -16.59610736
     11.63333333	      4.21673172	     -4.49337521	     -4.05724162	      2.29184370	      0.99724773	      1.02681398	     10.75683766	      6.08154789	     -3.44457482	     45.51365258	      0.79436309	     27.67403854	      5.97073648	     -9.55699529	      0.29639029	     95.73149143	      1.67082972	    -15.43273087
